<?xml version="1.0" encoding="utf-8"?>
<!-- Generator: Adobe Illustrator 16.0.0, SVG Export Plug-In . SVG Version: 6.00 Build 0)  -->
<!DOCTYPE svg PUBLIC "-//W3C//DTD SVG 1.1//EN" "http://www.w3.org/Graphics/SVG/1.1/DTD/svg11.dtd">
<svg version="1.1" xmlns="http://www.w3.org/2000/svg" xmlns:xlink="http://www.w3.org/1999/xlink" x="0px" y="0px" width="612px"
	 height="792px" viewBox="0 0 612 792" enable-background="new 0 0 612 792" xml:space="preserve">
<g id="Layer_1">
	<g>
		<path fill-rule="evenodd" clip-rule="evenodd" fill="#FFFFFF" d="M42.335,101.497c179.916,0,359.833,0.313,539.745-0.496
			c17.414-0.08,21.004,3.504,20.918,20.919c-0.813,173.104-0.813,346.219,0,519.322c0.086,17.414-3.504,20.997-20.918,20.918
			c-173.104-0.82-346.216-0.82-519.319,0c-17.414,0.079-20.999-3.504-20.922-20.918C42.646,461.329,42.335,281.41,42.335,101.497z"
			/>
		<path fill-rule="evenodd" clip-rule="evenodd" fill="#BF0005" d="M164.747,270.675c2.663-29.352-33.235-25.545-40.137-46.675
			c8.553-9.813,1.639-21.574,3.995-32.201c1.169-6.08,1.253-12.439,4.886-17.853c4.453-4.308,8.54-4.689,12.091,1.071
			c10.013,40.373,10.013,40.384,54.467,40.39c82.364,0.012,164.726,0.017,247.088,0c42.494-0.005,42.494-0.023,51.747-39.917
			c3.214-5.18,7.117-6.638,12.075-2.2c3.874,5.316,3.988,11.761,5.281,17.835c2.753,10.765-4.633,22.771,3.966,32.879
			c-1.549,22.075-32.019,9.323-35.306,29.307c-4.878,9.642-12.144,10.838-21.152,6.08c-8.952-6.427-19.118-8.884-29.974-8.94
			c-73.291-0.388-146.58-0.228-219.873-0.097c-13.186,0.023-25.016,2.502-31.683,15.642
			C177.471,271.575,172.429,276.133,164.747,270.675z"/>
		<path fill-rule="evenodd" clip-rule="evenodd" fill="#BF0005" d="M484.855,509.986c2.205,18.736,26.156,6.759,30.92,21.888
			c1.561,10.976-6.919,12.138-14.149,14.554c-119.466,2.285-238.951,2.325-358.453,0.073c-7.285-2.416-15.759-3.72-14.121-14.695
			c15.052-10.217,35.375-15.893,34.421-39.911c7.662-4.404,13.098-1.407,17.479,5.181c7.201,17.146,22.361,15.823,36.897,15.789
			c80.22-0.205,160.442,0.49,240.623-0.074C467.407,513.349,475.191,502.762,484.855,509.986z"/>
		<path fill-rule="evenodd" clip-rule="evenodd" fill="#BF0005" d="M509.672,177.17c-2.365-1.732-4.724-3.464-7.089-5.197
			c-10.32,9.887-23.38,8.166-35.871,8.183c-96.193,0.125-192.39,0.125-288.588,0c-12.491-0.018-25.551,1.704-35.865-8.183
			c-2.365,1.733-4.73,3.465-7.095,5.203c-3.821,3.647-7.701,3.602-11.636,0.188c0.795-19.596,14.269-23.283,29.985-23.3
			c112.319-0.108,224.636,0.21,336.95-0.337c17.744-0.085,26.599,7.87,30.839,23.637
			C517.364,180.778,513.483,180.823,509.672,177.17z"/>
		<path fill-rule="evenodd" clip-rule="evenodd" fill="#BF0005" d="M515.764,598.909c-7.493,12.178-19.717,10.199-31.13,10.206
			c-108.149,0.062-216.304,0.062-324.458,0c-11.408-0.007-23.637,1.982-31.132-10.195c-1.574-10.975,6.899-12.148,14.133-14.57
			c119.453-2.302,238.926-2.319,358.415-0.091C508.867,586.663,517.342,587.952,515.764,598.909z"/>
		<path fill-rule="evenodd" clip-rule="evenodd" fill="#BF0005" d="M228.345,403.6c6.3-3.642,12.816-6.964,18.836-11.021
			c5.041-3.391,14.625-4.314,13.289-11.557c-0.765-4.131-9.327-6.827-14.375-10.171c-2.255-7.75,1.539-12.114,8.287-14.844
			c44.862,8.787,89.646,8.308,134.354-1.396c7.05,2.279,10.804,6.696,9.357,14.468c-6.417,3.995-11.842,9.665-21.74,9.698
			c15.973,21.7,46.186,19.465,57.338,42.846c2.684,6.735-0.838,10.775-6.092,14.069c-28.024-9.63-49.628-33.393-80.53-36.566
			c-19.51,0.297-7.852,19.215-15.728,26.395c-5.532,6.707-11.305,7.135-17.332,0.655c-8.829-7.14,3.886-28.65-18.11-26.953
			c-20.138,2.086-37.393,14.298-57.567,16.098C232.27,413.742,225.827,412.466,228.345,403.6z"/>
		<path fill-rule="evenodd" clip-rule="evenodd" fill="#BF0005" d="M484.855,509.986c-8.684-0.661-10.575,8.611-16.822,11.506
			c-8.546-10.891-20.741-8.434-32.132-8.702c-17.397-0.41-34.846,0.81-52.191-0.792c-10.541-0.974-23.084-2.045-23.574-16.16
			c-0.495-14.416,12.024-15.636,22.571-17.095c11.517-1.602,23.181-0.382,34.771-0.764c12.503-0.416,25.188,1.618,37.393-2.718
			c6.304-3.021,12.64-5.499,19.078-0.309C480.844,485.615,484.422,497.309,484.855,509.986z"/>
		<path fill-rule="evenodd" clip-rule="evenodd" fill="#BF0005" d="M473.948,474.953c-5.481,0.268-10.068,2.058-12.61,7.357
			c-13.955-4.628-28.411-5.306-42.942-6.109c-9.59-0.53-20.724-0.98-22.924-13.362c-2.358-13.261,8.177-15.813,17.858-18.184
			c5.927-1.453,10.759-4.279,13.824-9.704c2.176-4.444,4.359-8.884,6.537-13.328C452.467,435.356,468.383,451.248,473.948,474.953z"
			/>
		<path fill-rule="evenodd" clip-rule="evenodd" fill="#BF0005" d="M164.747,270.675c5.45-0.12,9.972-1.875,12.485-7.134
			c19.203,17.186,24.38,42.293,36.027,63.763c-2.453,6.309-7.933,7.682-13.781,8.451
			C182.758,316.809,166.926,297.383,164.747,270.675z"/>
		<path fill-rule="evenodd" clip-rule="evenodd" fill="#BF0005" d="M468.535,259.01c5.453-1.898,10.906-3.795,16.366-5.699
			c0.729,25.967-17.745,43.295-28.776,63.97c-6.759,5.049-10.97,2.142-14.019-4.456C445.195,292.083,450.734,272.537,468.535,259.01
			z"/>
		<path fill-rule="evenodd" clip-rule="evenodd" fill="#BF0005" d="M199.478,335.754c2.636-5.447,7.578-6.627,12.948-7.014
			c17.792,3.202,32.17,11.288,40.374,28.212c-2.234,4.633-4.471,9.265-6.705,13.898
			C229.219,360.924,210.829,353.015,199.478,335.754z"/>
		<path fill-rule="evenodd" clip-rule="evenodd" fill="#BF0005" d="M398.094,369.079c-2.018-4.063-4.041-8.126-6.063-12.188
			c6.063-16.445,18.564-25.483,34.805-30.258c5.647,1.009,10.49,3.277,13.335,8.622
			C428.459,349.414,418.094,365.238,398.094,369.079z"/>
		<path fill-rule="evenodd" clip-rule="evenodd" fill="#BF0005" d="M228.345,403.6c3.16,5.921,8.804,7.271,14.77,8.018
			c-9.061,17.545-23.063,29.647-41.084,37.363c-6.243-1.242-12.474-2.513-9.166-11.414
			C199.082,420.381,213.584,411.856,228.345,403.6z"/>
		<path fill-rule="evenodd" clip-rule="evenodd" fill="#BF0005" d="M177.25,499.753c-2.805-5.755-8.032-7.26-13.776-7.858
			c2.817-10.166,4.26-20.901,12.007-29.026c6.954-4.292,12.017-2.32,15.573,4.7C191.411,480.418,192.936,493.781,177.25,499.753z"/>
		<path fill-rule="evenodd" clip-rule="evenodd" fill="#BF0005" d="M142.314,591.318c-5.624,0.439-10.639,1.938-13.269,7.602
			c-11.586-15.459-10.296-32.429-5.832-49.769c7.579,4.177,10.386,12.468,15.955,18.411
			C143.27,575.073,147.959,582.527,142.314,591.318z"/>
		<path fill-rule="evenodd" clip-rule="evenodd" fill="#BF0005" d="M515.764,598.909c-2.621-5.658-7.637-7.151-13.243-7.596
			c-5.63-8.832-0.952-16.263,3.162-23.791c5.511-5.926,8.371-14.205,15.939-18.365C526.089,566.497,527.382,583.461,515.764,598.909
			z"/>
		<path fill-rule="evenodd" clip-rule="evenodd" fill="#BF0005" d="M134.74,194.744c-1.306,10.468,7.978,24.6-10.129,29.255
			c-5.203-14.035-5.826-28.235-1.556-42.612C129.739,183.398,130.292,190.772,134.74,194.744z"/>
		<path fill-rule="evenodd" clip-rule="evenodd" fill="#BF0005" d="M520.207,224.005c-18.074-4.672-8.809-18.792-10.108-29.261
			c4.445-3.972,5.004-11.346,11.683-13.363C526.054,195.764,525.439,209.97,520.207,224.005z"/>
		<path fill-rule="evenodd" clip-rule="evenodd" fill="#BF0005" d="M188.813,470.806c-2.513-5.893-7.645-7.386-13.333-7.938
			c3.399-10.081,9.41-18.36,17.389-25.302c1.977,5.488,6.162,7.779,11.72,8.069C208.359,459.683,201.255,466.919,188.813,470.806z"
			/>
		<path fill-rule="evenodd" clip-rule="evenodd" fill="#BF0005" d="M136.643,568.298c-13.195-0.263-12.419-10.319-13.423-19.141
			c-1.054-6.792-0.535-13.056,5.832-17.352c2.598,5.682,7.587,7.209,13.222,7.619C148.222,550.576,144.044,559.751,136.643,568.298z
			"/>
		<path fill-rule="evenodd" clip-rule="evenodd" fill="#BF0005" d="M521.622,549.157c-1.004,8.81-0.234,18.873-13.427,19.141
			c-7.4-8.547-11.578-17.722-5.63-28.873c5.607-0.399,10.593-1.898,13.21-7.551C522.117,536.147,522.647,542.388,521.622,549.157z"
			/>
		<path fill-rule="evenodd" clip-rule="evenodd" fill="#BF0005" d="M440.17,335.254c-5.425-0.439-10.457-1.59-13.039-7.187
			c-0.535-12.091,5.574-17.687,17.352-17.732c2.246,5.054,6.469,6.792,11.643,6.946C456.021,327.903,446.267,329.954,440.17,335.254
			z"/>
		<path fill-rule="evenodd" clip-rule="evenodd" fill="#BF0005" d="M134.74,194.744c-8.468-0.45-10.66-6.388-11.682-13.357
			c-1.094-1.487-0.938-2.832,0.47-4.023c3.881-0.063,7.764-0.125,11.643-0.188C135.021,183.028,134.882,188.886,134.74,194.744z"/>
		<path fill-rule="evenodd" clip-rule="evenodd" fill="#BF0005" d="M521.781,181.381c-1.009,6.981-3.231,12.907-11.693,13.369
			c-0.137-5.864-0.285-11.722-0.422-17.58c3.881,0.063,7.756,0.131,11.631,0.194C522.709,178.55,522.875,179.889,521.781,181.381z"
			/>
		<path fill-rule="evenodd" clip-rule="evenodd" fill="#FBFCFE" d="M444.482,310.335c-5.784,5.915-11.567,11.824-17.352,17.738
			c-11.698,9.607-23.396,19.215-35.101,28.822c-46.402,18.406-92.809,22.645-139.23,0.058
			c-13.457-9.402-26.913-18.811-40.374-28.212c-18.051-18.32-25.399-42.419-35.194-65.2c-2.314-14.144-1.217-22.753,18.01-22.509
			c85.193,1.083,170.416,0.787,255.619,0.155c14.027-0.108,19.737,3.965,17.675,17.824
			C460.518,276.122,452.5,293.229,444.482,310.335z"/>
		<path fill-rule="evenodd" clip-rule="evenodd" fill="#F9FAFE" d="M142.259,171.974c120.105,0,240.209-0.005,360.317,0
			c1.026,8.622,1.928,17.266,3.09,25.871c2.713,20.036-5.181,26.89-25.939,26.686c-98.067-0.975-196.159-0.433-294.242-0.433
			C133.794,224.097,133.429,223.652,142.259,171.974z"/>
		<path fill-rule="evenodd" clip-rule="evenodd" fill="#FFFFFF" d="M188.813,470.806c5.256-8.389,10.517-16.776,15.775-25.17
			c10.527-13.955,23.218-25.466,38.521-34.019c16.309-13.237,36.558-15.062,55.96-19.33c10.351-3.869,13.994,0.935,14.536,10.73
			c0.359,6.503-2.091,13.557,3.047,19.335c3.84,4.946,7.692,4.946,11.532,0c5.14-5.784,2.679-12.839,3.044-19.335
			c0.557-9.79,4.171-14.627,14.54-10.707c31.086,6.661,59.121,19.141,81.385,42.641c2.952,6.912,20.149,17.643-5.02,16.85
			c-7.396-0.233-20.595-5.025-20.509,8.099c0.108,15.345,14.326,8.222,22.521,9.054c13.688,1.396,29.368-4.022,37.191,13.352
			c-25.151,9.254-51.239,1.806-76.757,4.342c-6.945,0.689-17.538-3.294-18.062,8.28c-0.542,11.972,10.159,8.969,17.122,9.082
			c22.104,0.359,44.226,0.576,66.316-0.017c12.799-0.348,20.896,2.502,18.07,17.5c-92.112,0.045-184.245-0.639-276.343,0.666
			c-21.824,0.309-21.037-7.596-14.439-22.411C181.104,490.105,184.958,480.452,188.813,470.806z"/>
		<path fill-rule="evenodd" clip-rule="evenodd" fill="#FAF9FE" d="M502.565,539.425c1.881,9.624,3.756,19.248,5.63,28.873
			c-1.892,7.67-3.784,15.346-5.675,23.016c-120.075,0-240.139,0.005-360.208,0.005c-1.889-7.675-3.784-15.351-5.673-23.021
			c1.881-9.625,3.757-19.249,5.635-28.873C262.371,539.425,382.468,539.425,502.565,539.425z"/>
		<path fill-rule="evenodd" clip-rule="evenodd" fill="#BF0005" d="M316.653,422.353c-11.257-6.866,3.807-29.125-17.586-30.065
			C331.786,386.606,310.767,412.341,316.653,422.353z"/>
		<path fill-rule="evenodd" clip-rule="evenodd" fill="#BF0005" d="M345.77,392.311c-21.379,0.935-6.335,23.176-17.584,30.042
			C334.05,412.341,313.104,386.635,345.77,392.311z"/>
		<path fill-rule="evenodd" clip-rule="evenodd" fill="#75C4FE" d="M225.668,277.644c65.496,0,128.331,0,194.203,0
			c-13.265,27.073-31.294,43.757-59.952,45.535C270.664,328.701,248.774,321.458,225.668,277.644z"/>
		<path fill-rule="evenodd" clip-rule="evenodd" fill="#8DBEFE" d="M322.056,189.114c47.636-0.005,95.28-0.182,142.918,0.194
			c6.901,0.051,18.007-3.983,19.198,6.981c1.3,11.96-10.018,9.396-17.016,9.413c-96.251,0.211-192.5,0.211-288.75,0.011
			c-7.075-0.017-18.314,2.685-17.884-8.758c0.427-11.26,11.705-7.613,18.618-7.665C226.778,188.955,274.416,189.114,322.056,189.114
			z"/>
		<path fill-rule="evenodd" clip-rule="evenodd" fill="#8BBFFE" d="M325.279,573.301c-48.572,0-97.151,0.114-145.722-0.131
			c-7.167-0.034-18.212,2.935-18.919-7.789c-0.798-12.104,10.855-8.445,17.562-8.469c96.179-0.285,192.358-0.285,288.54,0.006
			c6.673,0.023,18.371-3.687,17.432,8.559c-0.815,10.702-11.842,7.653-18.992,7.693C418.55,573.427,371.915,573.301,325.279,573.301
			z"/>
	</g>
</g>
<g id="Layer_2">
</g>
</svg>
